#!OML:ASF F:\VICON\USERDATA\INSTALL\rory3\rory3.ASF
:FULLY-SPECIFIED
:DEGREES
376
root -6.39564 16.5597 -3.24495 69.0256 -58.9171 -54.5446
lowerback 1.91755 0.646961 0.982657
upperback -5.9291 0.498472 -4.59474
thorax -7.2343 -0.0213477 -5.43154
lowerneck -19.8734 -3.70853 -11.3684
upperneck 15.9206 -5.66103 17.9038
head 9.17772 -1.60372 7.41479
rclavicle -4.92986e-014 -1.27222e-014
rhumerus -19.6249 -16.7434 -7.47308
rradius 39.9941
rwrist 7.67533
rhand -30.8816 -66.1192
rfingers 7.12502
rthumb -4.16878 -1703.94
lclavicle -4.92986e-014 -1.27222e-014
lhumerus -44.2794 3.09518 42.3509
lradius 33.4231
lwrist 19.7212
lhand -39.847 326.691
lfingers 7.12502
lthumb -12.8202 -3.7226
rfemur -25.2427 -8.79837 38.1486
rtibia 35.1163
rfoot -14.9537 -29.7332
rtoes -8.57166
lfemur -67.7629 30.5785 -13.0818
ltibia 48.0838
lfoot -51.6652 43.9462
ltoes 45.2913
377
root -6.36421 16.5608 -3.36719 69.9947 -60.2703 -55.733
lowerback 2.00836 0.25524 0.975309
upperback -5.80409 -0.0326256 -4.62559
thorax -7.20805 -0.284915 -5.41629
lowerneck -20.5756 -3.17346 -9.83587
upperneck 16.3616 -5.21035 17.1063
head 9.31278 -1.33377 6.93126
rclavicle -3.18055e-015 1.01778e-013
rhumerus -19.0069 -16.8489 -9.39039
rradius 40.4531
rwrist 8.03221
rhand -31.7803 -66.2658
rfingers 7.12502
rthumb -5.03662 -1703.81
lclavicle -3.18055e-015 1.01778e-013
lhumerus -44.876 3.47139 41.6142
lradius 33.5582
lwrist 20.404
lhand -40.6491 326.322
lfingers 7.12502
lthumb -13.5935 -4.14162
rfemur -25.2204 -7.36926 37.3479
rtibia 35.2423
rfoot -16.6494 -29.7157
rtoes -5.37847
lfemur -66.4421 29.9323 -11.9574
ltibia 47.7482
lfoot -51.0541 43.2383
ltoes 44.2413
378
root -6.34182 16.545 -3.47253 72.5577 -61.1411 -58.364
lowerback 1.67516 0.64276 2.03654
upperback -5.7093 0.594466 -4.24217
thorax -6.84205 -0.00412006 -5.6512
lowerneck -20.0984 -3.59248 -11.2558
upperneck 15.7622 -5.40668 17.5338
head 9.10378 -1.50367 7.28628
rclavicle 2.38542e-014 4.45278e-014
rhumerus -20.1126 -17.5653 -9.38543
rradius 41.7696
rwrist 8.84463
rhand -32.1778 -66.0271
rfingers 7.12502
rthumb -5.42036 -1704.06
lclavicle 2.38542e-014 4.45278e-014
lhumerus -44.3598 3.2432 42.6429
lradius 33.4158
lwrist 21.1065
lhand -41.2555 326.018
lfingers 7.12502
lthumb -14.1778 -4.48533
rfemur -25.3978 -5.4522 37.2291
rtibia 35.4259
rfoot -17.5014 -29.8629
rtoes -3.73977
lfemur -65.4532 29.7493 -10.1638
ltibia 47.4265
lfoot -48.5303 43.2772
ltoes 41.5808
379
root -6.31656 16.5292 -3.57621 74.9294 -62.3256 -60.5641
lowerback 1.37252 0.695148 2.4158
upperback -5.84759 0.696072 -3.96886
thorax -6.80184 0.032354 -5.57939
lowerneck -19.4926 -3.56782 -11.8167
upperneck 15.3973 -5.21754 17.5866
head 8.85301 -1.47527 7.41053
rclavicle 1.98785e-015 -8.5875e-014
rhumerus -19.905 -16.4364 -9.93743
rradius 42.9438
rwrist 8.28378
rhand -31.7909 -66.077
rfingers 7.12502
rthumb -5.04684 -1704
lclavicle 1.98785e-015 -8.5875e-014
lhumerus -44.6433 3.15744 42.8837
lradius 33.5785
lwrist 21.8037
lhand -41.2424 326.484
lfingers 7.12502
lthumb -14.1652 -4.01872
rfemur -25.9751 -4.49041 36.7856
rtibia 35.792
rfoot -16.8954 -29.8675
rtoes -5.66669
lfemur -64.5692 29.0941 -8.73748
ltibia 47.0415
lfoot -47.442 42.8592
ltoes 40.487
380
root -6.28239 16.5199 -3.67869 76.8364 -63.6798 -62.3159
lowerback 1.30969 0.641231 2.21025
upperback -6.00308 0.621044 -3.70645
thorax -6.94164 0.0073818 -5.17917
lowerneck -19.3081 -3.50014 -11.6254
upperneck 15.4335 -5.05143 16.9232
head 8.77315 -1.45149 7.15086
rclavicle -9.93923e-015 4.13472e-014
rhumerus -19.5157 -14.7792 -10.2974
rradius 43.8569
rwrist 7.22713
rhand -31.7158 -66.3514
rfingers 7.12502
rthumb -4.97435 -1703.73
lclavicle -9.93923e-015 4.13472e-014
lhumerus -45.0563 3.02673 43.1199
lradius 33.8654
lwrist 22.4044
lhand -41.1202 327.164
lfingers 7.12502
lthumb -14.0474 -3.33086
rfemur -26.7057 -5.34206 36.1977
rtibia 36.2295
rfoot -15.9791 -28.4326
rtoes -7.53894
lfemur -63.5183 27.7815 -7.35927
ltibia 46.7436
lfoot -47.3704 42.5643
ltoes 40.543
381
root -6.24576 16.5052 -3.78382 78.8189 -64.9679 -64.3559
lowerback 1.50853 0.632998 2.37469
upperback -6.10293 0.617999 -3.65488
thorax -7.16469 -0.0104962 -5.22457
lowerneck -18.9025 -3.52406 -11.6537
upperneck 15.2842 -5.04856 16.7006
head 8.64109 -1.49144 7.06331
rclavicle -5.1684e-015 4.13472e-014
rhumerus -19.1643 -14.4057 -10.9718
rradius 44.0399
rwrist 7.1857
rhand -32.133 -66.4067
rfingers 7.12502
rthumb -5.37716 -1703.68
lclavicle -5.1684e-015 4.13472e-014
lhumerus -45.2742 2.5683 43.3065
lradius 34.1662
lwrist 22.8992
lhand -41.5223 327.453
lfingers 7.12502
lthumb -14.4349 -3.06925
rfemur -27.4391 -8.1859 35.9271
rtibia 36.7652
rfoot -14.9074 -25.252
rtoes -9.43488
lfemur -62.5069 26.9068 -6.32295
ltibia 46.5392
lfoot -47.4534 42.2467
ltoes 41.0834
382
root -6.22299 16.4838 -3.87523 81.5268 -65.9207 -67.3009
lowerback 1.5638 0.631243 2.83038
upperback -6.0904 0.656765 -3.45768
thorax -7.17817 -0.00990631 -5.27767
lowerneck -18.3093 -3.46455 -11.7641
upperneck 14.8352 -4.9199 16.6306
head 8.36348 -1.47396 7.05084
rclavicle -2.78299e-014 4.77083e-014
rhumerus -18.2688 -14.6552 -11.9236
rradius 43.7647
rwrist 7.7896
rhand -32.2814 -65.7952
rfingers 7.12502
rthumb -5.52045 -1704.3
lclavicle -2.78299e-014 4.77083e-014
lhumerus -45.6035 2.55358 43.3269
lradius 34.5349
lwrist 23.0639
lhand -41.8801 327.594
lfingers 7.12502
lthumb -14.7797 -2.95258
rfemur -27.728 -8.13366 35.7219
rtibia 37.255
rfoot -14.5602 -24.7069
rtoes -10.8226
lfemur -61.4282 26.4499 -5.07764
ltibia 46.4979
lfoot -47.9176 42.0383
ltoes 41.3747
383
root -6.20744 16.4687 -3.96272 84.9051 -66.5706 -70.9322
lowerback 1.45876 0.564999 3.49913
upperback -6.01953 0.619752 -3.23767
thorax -7.04479 -0.052868 -5.41768
lowerneck -17.9805 -3.27081 -11.553
upperneck 14.5225 -4.66398 16.4495
head 8.14926 -1.37441 6.96524
rclavicle 4.77083e-015 2.54444e-014
rhumerus -17.8006 -15.0385 -13.4615
rradius 44.2348
rwrist 8.5143
rhand -32.4865 -65.3522
rfingers 7.12502
rthumb -5.7185 -1704.75
lclavicle 4.77083e-015 2.54444e-014
lhumerus -46.0407 2.95843 42.9512
lradius 34.9357
lwrist 23.0409
lhand -41.76 327.857
lfingers 7.12502
lthumb -14.6639 -2.68112
rfemur -27.9905 -8.15598 35.8286
rtibia 37.7052
rfoot -14.4018 -23.8539
rtoes -11.7632
lfemur -60.2032 25.9564 -3.38906
ltibia 46.5261
lfoot -49.1835 41.8922
ltoes 41.4702
